HIERARCHY
ROOT Hips
{
	OFFSET -0.001795 -0.223333 0.028219
	CHANNELS 6 Xposition Yposition Zposition Zrotation Yrotation Xrotation 
	JOINT LeftUpLeg
	{
		OFFSET 0.069520 -0.091406 -0.006815
		CHANNELS 3 Zrotation Yrotation Xrotation
		JOINT LeftLeg
		{
			OFFSET 0.034277 -0.375199 -0.004496
			CHANNELS 3 Zrotation Yrotation Xrotation
			JOINT LeftFoot
			{
				OFFSET -0.013596 -0.397961 -0.043693
				CHANNELS 3 Zrotation Yrotation Xrotation
				JOINT LeftToe
				{
					OFFSET 0.026358 -0.055791 0.119288
					CHANNELS 3 Zrotation Yrotation Xrotation
					End Site
					{
						OFFSET 0.000000 0.000000 0.000000
					}
				}
			}
		}
	}
	JOINT RightUpLeg
	{
		OFFSET -0.067670 -0.090522 -0.004320
		CHANNELS 3 Zrotation Yrotation Xrotation
		JOINT RightLeg
		{
			OFFSET -0.038290 -0.382569 -0.008850
			CHANNELS 3 Zrotation Yrotation Xrotation
			JOINT RightFoot
			{
				OFFSET 0.015774 -0.398415 -0.042312
				CHANNELS 3 Zrotation Yrotation Xrotation
				JOINT RightToe
				{
					OFFSET -0.025372 -0.048144 0.123348
					CHANNELS 3 Zrotation Yrotation Xrotation
					End Site
					{
						OFFSET 0.000000 0.000000 0.000000
					}
				}
			}
		}
	}
	JOINT Spine
	{
		OFFSET -0.002533 0.108963 -0.026696
		CHANNELS 3 Zrotation Yrotation Xrotation
		JOINT Spine1
		{
			OFFSET 0.005487 0.135180 0.001092
			CHANNELS 3 Zrotation Yrotation Xrotation
			JOINT Spine2
			{
				OFFSET 0.001457 0.052922 0.025425
				CHANNELS 3 Zrotation Yrotation Xrotation
				JOINT Neck
				{
					OFFSET -0.002778 0.213870 -0.042857
					CHANNELS 3 Zrotation Yrotation Xrotation
					JOINT Head
					{
						OFFSET 0.005152 0.064970 0.051349
						CHANNELS 3 Zrotation Yrotation Xrotation
						End Site
						{
							OFFSET 0.000000 0.000000 0.000000
						}
					}
				}
				JOINT LeftShoulder
				{
					OFFSET 0.078845 0.121749 -0.034090
					CHANNELS 3 Zrotation Yrotation Xrotation
					JOINT LeftArm
					{
						OFFSET 0.090977 0.030469 -0.008868
						CHANNELS 3 Zrotation Yrotation Xrotation
						JOINT LeftForeArm
						{
							OFFSET 0.259612 -0.012772 -0.027456
							CHANNELS 3 Zrotation Yrotation Xrotation
							JOINT LeftHand
							{
								OFFSET 0.249234 0.008986 -0.001171
								CHANNELS 3 Zrotation Yrotation Xrotation
								End Site
								{
									OFFSET 0.000000 0.000000 0.000000
								}
							}
						}
					}
				}
				JOINT RightShoulder
				{
					OFFSET -0.081759 0.118833 -0.038615
					CHANNELS 3 Zrotation Yrotation Xrotation
					JOINT RightArm
					{
						OFFSET -0.096012 0.032551 -0.009143
						CHANNELS 3 Zrotation Yrotation Xrotation
						JOINT RightForeArm
						{
							OFFSET -0.253742 -0.013329 -0.021401
							CHANNELS 3 Zrotation Yrotation Xrotation
							JOINT RightHand
							{
								OFFSET -0.255298 0.007772 -0.005559
								CHANNELS 3 Zrotation Yrotation Xrotation
								End Site
								{
									OFFSET 0.000000 0.000000 0.000000
								}
							}
						}
					}
				}
			}
		}
	}
}
MOTION
Frames: 10
Frame Time: 0.050000
0.000000 0.936770 0.000000 -2.297251 -4.796125 4.587300 4.081119 -0.162333 -1.774102 -1.884327 0.435225 -10.325739 -2.456578 -1.434921 8.451820 0.000000 0.000000 0.000000 -1.944818 0.476772 -4.791543 3.103846 -0.326767 -3.306541 -4.350924 -12.316494 5.729115 0.000000 0.000000 0.000000 -2.006586 0.010817 1.861301 -1.929451 1.007473 6.990735 1.093460 1.625597 2.848140 0.474474 0.754197 -15.738104 0.000000 0.000000 0.000000 -32.040182 -20.211173 11.306032 -32.668269 -8.412134 -1.752718 -59.314875 -68.353222 45.755268 0.000000 0.000000 0.000000 33.638201 21.947932 12.204634 43.593870 7.818592 -1.184997 -21.962174 74.201818 -13.743008 0.000000 0.000000 0.000000 
0.000048 0.935695 0.001112 -1.973913 -4.371246 5.188516 4.560573 -0.174621 -1.807189 -3.201472 0.490314 -11.923742 -3.748478 -2.863036 10.436495 0.000000 0.000000 0.000000 -2.008493 0.506626 -5.117977 2.527956 -0.297048 -3.585606 -5.067451 -13.828763 5.932388 0.000000 0.000000 0.000000 -2.825492 0.065224 1.183983 -1.134066 0.552998 6.558199 1.659478 0.942091 3.320093 -0.974635 1.605799 -16.787937 0.000000 0.000000 0.000000 -32.013785 -19.399475 11.054782 -33.093328 -9.694023 -1.581850 -71.134941 -67.883999 55.304145 0.000000 0.000000 0.000000 31.971786 21.144963 11.072250 45.169017 5.567990 -1.965049 -17.756186 77.590416 -11.443815 0.000000 0.000000 0.000000 
0.000525 0.935676 0.001859 -2.159458 -4.847188 5.317512 5.540672 -0.159621 -1.583260 -3.735060 0.503726 -11.727294 -4.643569 -4.823460 9.703406 0.000000 0.000000 0.000000 -1.346535 0.535106 -5.438373 1.752467 -0.250340 -3.730063 -5.202728 -14.173846 6.174174 0.000000 0.000000 0.000000 -2.249569 0.059652 0.420523 -0.556934 0.253475 5.595931 0.843490 0.736083 4.411935 -0.459326 1.189973 -15.189093 0.000000 0.000000 0.000000 -30.402415 -19.747213 11.237304 -34.477271 -10.716026 -1.459708 -65.569618 -68.624200 51.438781 0.000000 0.000000 0.000000 32.737437 21.348457 11.230531 44.774372 4.030557 -2.523649 -22.414807 76.733781 -14.951522 0.000000 0.000000 0.000000 
0.001023 0.935537 0.002554 -2.146187 -4.604904 5.435582 5.988373 -0.157068 -1.390596 -4.337261 0.516417 -12.792836 -5.560402 -5.614682 11.360524 0.000000 0.000000 0.000000 -1.204401 0.551195 -5.611081 1.612525 -0.244665 -3.805696 -6.154614 -16.157611 6.638518 0.000000 0.000000 0.000000 -2.349027 0.069499 0.166233 -0.547145 0.241150 5.759536 1.277796 -0.148887 4.108353 -0.932155 1.396340 -15.238313 0.000000 0.000000 0.000000 -30.188101 -21.029786 12.499958 -34.808101 -11.772080 -1.270919 -68.189656 -69.456040 54.576556 0.000000 0.000000 0.000000 33.275818 21.949831 11.279392 44.807470 2.359593 -2.928087 -25.821801 78.624522 -18.598124 0.000000 0.000000 0.000000 
0.001519 0.935735 0.003315 -1.911134 -4.732574 4.881266 5.416668 -0.103361 -0.445567 -3.909577 0.516058 -12.791930 -5.831903 -6.384306 10.771509 0.000000 0.000000 0.000000 -1.340219 0.473609 -4.772141 1.230364 -0.238095 -4.438524 -5.294049 -14.422770 6.592078 0.000000 0.000000 0.000000 -1.981087 0.052932 0.181693 -0.695031 0.323747 5.622611 0.980978 -0.666312 4.371831 -0.933236 1.310419 -14.377616 0.000000 0.000000 0.000000 -30.286001 -21.653470 13.209799 -35.003395 -12.500446 -1.170414 -67.882238 -69.957546 54.900150 0.000000 0.000000 0.000000 33.553346 22.191958 11.209046 44.189934 1.937678 -2.962919 -22.466963 78.695248 -16.019034 0.000000 0.000000 0.000000 
0.002033 0.936282 0.004048 -1.737713 -4.684616 4.370121 5.171808 -0.060927 0.251533 -3.805606 0.518245 -13.123198 -6.015016 -6.652582 10.849123 0.000000 0.000000 0.000000 -2.009242 0.414464 -4.054685 1.747704 -0.272083 -4.698066 -5.549985 -14.955166 6.783348 0.000000 0.000000 0.000000 -2.012270 0.037902 0.688002 -0.496667 0.216222 5.626291 1.010967 -0.567742 4.505149 -1.001919 1.398006 -15.206029 0.000000 0.000000 0.000000 -29.406543 -22.498621 13.570016 -36.158502 -13.981302 -0.754094 -66.590360 -70.018712 53.878521 0.000000 0.000000 0.000000 33.510671 22.205794 11.273437 43.051920 1.941539 -2.909249 -24.261724 79.008093 -17.548398 0.000000 0.000000 0.000000 
0.002411 0.936428 0.004456 -1.637841 -4.702713 4.211491 5.048855 -0.042776 0.529675 -3.765772 0.516742 -12.977662 -5.940667 -6.539211 10.817789 0.000000 0.000000 0.000000 -1.923177 0.394425 -3.833903 1.583188 -0.266538 -4.835167 -5.366502 -14.533288 6.485988 0.000000 0.000000 0.000000 -1.724410 0.028091 0.655667 -0.626278 0.286131 5.931915 0.947813 -0.733637 4.287807 -0.939484 1.333410 -14.906090 0.000000 0.000000 0.000000 -29.138105 -22.522050 13.586443 -36.148262 -14.316050 -0.662998 -67.679339 -70.210174 55.009979 0.000000 0.000000 0.000000 33.652632 22.708731 11.578289 41.769600 2.798274 -2.499108 -24.105850 79.685077 -17.684354 0.000000 0.000000 0.000000 
0.002716 0.936568 0.004462 -1.496296 -5.145406 3.984523 4.822796 -0.010107 0.931647 -3.591122 0.519691 -12.644415 -5.710942 -6.558366 10.069567 0.000000 0.000000 0.000000 -1.960007 0.373856 -3.586563 1.775381 -0.273734 -4.827618 -5.363560 -14.454012 6.040603 0.000000 0.000000 0.000000 -1.658113 0.027851 0.547703 -0.914106 0.454522 6.298603 1.121586 -0.204599 4.350469 -0.841673 1.302022 -14.914935 0.000000 0.000000 0.000000 -28.736503 -22.931967 13.653547 -36.125747 -14.826549 -0.484309 -66.868081 -71.095479 55.008577 0.000000 0.000000 0.000000 33.421304 23.357634 12.194110 40.323401 4.468894 -1.948289 -26.909590 80.528127 -20.236072 0.000000 0.000000 0.000000 
0.003050 0.936678 0.004028 -1.461651 -5.099965 3.834340 4.946200 0.001301 1.157932 -3.946753 0.521850 -12.569224 -5.737648 -6.712802 9.842896 0.000000 0.000000 0.000000 -1.963232 0.360010 -3.428098 1.776354 -0.269212 -4.583702 -5.250819 -14.152987 5.688983 0.000000 0.000000 0.000000 -1.629128 0.025410 0.568258 -1.035054 0.521255 6.609010 1.400233 0.221490 4.334970 -0.726472 1.281776 -15.177842 0.000000 0.000000 0.000000 -28.494943 -23.530375 13.839602 -36.043621 -15.692082 -0.193393 -64.974498 -71.954556 54.013010 0.000000 0.000000 0.000000 32.811117 24.717979 13.335057 38.888178 6.843135 -1.247386 -34.278282 80.108918 -26.205032 0.000000 0.000000 0.000000 
0.003502 0.936702 0.003297 -1.427530 -5.404972 3.493561 4.822294 0.030287 1.501060 -3.757022 0.523865 -12.432515 -5.653641 -6.633224 9.760735 0.000000 0.000000 0.000000 -1.954669 0.344091 -3.250770 1.872967 -0.266845 -4.277822 -5.234026 -14.004018 5.107146 0.000000 0.000000 0.000000 -1.364478 0.015736 0.569282 -1.519573 0.801578 7.018606 1.755157 0.745489 4.508510 -0.767477 1.342071 -15.271914 0.000000 0.000000 0.000000 -28.434386 -24.047607 14.042400 -35.836144 -16.626357 0.088096 -60.553442 -72.986346 50.997624 0.000000 0.000000 0.000000 32.471503 26.337639 14.659517 36.835750 9.440025 -0.539540 -40.589977 78.687223 -30.710828 0.000000 0.000000 0.000000 
